%TF.GenerationSoftware,KiCad,Pcbnew,9.0.6*%
%TF.CreationDate,2025-12-23T15:19:46+08:00*%
%TF.ProjectId,pressure_encoder_board,70726573-7375-4726-955f-656e636f6465,rev?*%
%TF.SameCoordinates,Original*%
%TF.FileFunction,Legend,Top*%
%TF.FilePolarity,Positive*%
%FSLAX46Y46*%
G04 Gerber Fmt 4.6, Leading zero omitted, Abs format (unit mm)*
G04 Created by KiCad (PCBNEW 9.0.6) date 2025-12-23 15:19:46*
%MOMM*%
%LPD*%
G01*
G04 APERTURE LIST*
%ADD10C,0.300000*%
%ADD11C,0.150000*%
%ADD12C,0.120000*%
G04 APERTURE END LIST*
D10*
X146054510Y-93300828D02*
X146054510Y-91800828D01*
X146054510Y-91800828D02*
X146554510Y-92872257D01*
X146554510Y-92872257D02*
X147054510Y-91800828D01*
X147054510Y-91800828D02*
X147054510Y-93300828D01*
X148054511Y-91800828D02*
X148340225Y-91800828D01*
X148340225Y-91800828D02*
X148483082Y-91872257D01*
X148483082Y-91872257D02*
X148625939Y-92015114D01*
X148625939Y-92015114D02*
X148697368Y-92300828D01*
X148697368Y-92300828D02*
X148697368Y-92800828D01*
X148697368Y-92800828D02*
X148625939Y-93086542D01*
X148625939Y-93086542D02*
X148483082Y-93229400D01*
X148483082Y-93229400D02*
X148340225Y-93300828D01*
X148340225Y-93300828D02*
X148054511Y-93300828D01*
X148054511Y-93300828D02*
X147911654Y-93229400D01*
X147911654Y-93229400D02*
X147768796Y-93086542D01*
X147768796Y-93086542D02*
X147697368Y-92800828D01*
X147697368Y-92800828D02*
X147697368Y-92300828D01*
X147697368Y-92300828D02*
X147768796Y-92015114D01*
X147768796Y-92015114D02*
X147911654Y-91872257D01*
X147911654Y-91872257D02*
X148054511Y-91800828D01*
X149125940Y-91800828D02*
X149983083Y-91800828D01*
X149554511Y-93300828D02*
X149554511Y-91800828D01*
X150768797Y-91800828D02*
X151054511Y-91800828D01*
X151054511Y-91800828D02*
X151197368Y-91872257D01*
X151197368Y-91872257D02*
X151340225Y-92015114D01*
X151340225Y-92015114D02*
X151411654Y-92300828D01*
X151411654Y-92300828D02*
X151411654Y-92800828D01*
X151411654Y-92800828D02*
X151340225Y-93086542D01*
X151340225Y-93086542D02*
X151197368Y-93229400D01*
X151197368Y-93229400D02*
X151054511Y-93300828D01*
X151054511Y-93300828D02*
X150768797Y-93300828D01*
X150768797Y-93300828D02*
X150625940Y-93229400D01*
X150625940Y-93229400D02*
X150483082Y-93086542D01*
X150483082Y-93086542D02*
X150411654Y-92800828D01*
X150411654Y-92800828D02*
X150411654Y-92300828D01*
X150411654Y-92300828D02*
X150483082Y-92015114D01*
X150483082Y-92015114D02*
X150625940Y-91872257D01*
X150625940Y-91872257D02*
X150768797Y-91800828D01*
X152911654Y-93300828D02*
X152411654Y-92586542D01*
X152054511Y-93300828D02*
X152054511Y-91800828D01*
X152054511Y-91800828D02*
X152625940Y-91800828D01*
X152625940Y-91800828D02*
X152768797Y-91872257D01*
X152768797Y-91872257D02*
X152840226Y-91943685D01*
X152840226Y-91943685D02*
X152911654Y-92086542D01*
X152911654Y-92086542D02*
X152911654Y-92300828D01*
X152911654Y-92300828D02*
X152840226Y-92443685D01*
X152840226Y-92443685D02*
X152768797Y-92515114D01*
X152768797Y-92515114D02*
X152625940Y-92586542D01*
X152625940Y-92586542D02*
X152054511Y-92586542D01*
X155197368Y-92515114D02*
X154697368Y-92515114D01*
X154697368Y-93300828D02*
X154697368Y-91800828D01*
X154697368Y-91800828D02*
X155411654Y-91800828D01*
X155911654Y-92872257D02*
X156625940Y-92872257D01*
X155768797Y-93300828D02*
X156268797Y-91800828D01*
X156268797Y-91800828D02*
X156768797Y-93300828D01*
X157268796Y-91800828D02*
X157268796Y-93015114D01*
X157268796Y-93015114D02*
X157340225Y-93157971D01*
X157340225Y-93157971D02*
X157411654Y-93229400D01*
X157411654Y-93229400D02*
X157554511Y-93300828D01*
X157554511Y-93300828D02*
X157840225Y-93300828D01*
X157840225Y-93300828D02*
X157983082Y-93229400D01*
X157983082Y-93229400D02*
X158054511Y-93157971D01*
X158054511Y-93157971D02*
X158125939Y-93015114D01*
X158125939Y-93015114D02*
X158125939Y-91800828D01*
X159554511Y-93300828D02*
X158840225Y-93300828D01*
X158840225Y-93300828D02*
X158840225Y-91800828D01*
X159840226Y-91800828D02*
X160697369Y-91800828D01*
X160268797Y-93300828D02*
X160268797Y-91800828D01*
X155840225Y-65300828D02*
X156125939Y-65300828D01*
X156125939Y-65300828D02*
X156268796Y-65372257D01*
X156268796Y-65372257D02*
X156411653Y-65515114D01*
X156411653Y-65515114D02*
X156483082Y-65800828D01*
X156483082Y-65800828D02*
X156483082Y-66300828D01*
X156483082Y-66300828D02*
X156411653Y-66586542D01*
X156411653Y-66586542D02*
X156268796Y-66729400D01*
X156268796Y-66729400D02*
X156125939Y-66800828D01*
X156125939Y-66800828D02*
X155840225Y-66800828D01*
X155840225Y-66800828D02*
X155697368Y-66729400D01*
X155697368Y-66729400D02*
X155554510Y-66586542D01*
X155554510Y-66586542D02*
X155483082Y-66300828D01*
X155483082Y-66300828D02*
X155483082Y-65800828D01*
X155483082Y-65800828D02*
X155554510Y-65515114D01*
X155554510Y-65515114D02*
X155697368Y-65372257D01*
X155697368Y-65372257D02*
X155840225Y-65300828D01*
X157125939Y-65300828D02*
X157125939Y-66515114D01*
X157125939Y-66515114D02*
X157197368Y-66657971D01*
X157197368Y-66657971D02*
X157268797Y-66729400D01*
X157268797Y-66729400D02*
X157411654Y-66800828D01*
X157411654Y-66800828D02*
X157697368Y-66800828D01*
X157697368Y-66800828D02*
X157840225Y-66729400D01*
X157840225Y-66729400D02*
X157911654Y-66657971D01*
X157911654Y-66657971D02*
X157983082Y-66515114D01*
X157983082Y-66515114D02*
X157983082Y-65300828D01*
X158483083Y-65300828D02*
X159340226Y-65300828D01*
X158911654Y-66800828D02*
X158911654Y-65300828D01*
X101554510Y-52600198D02*
X101768796Y-52671626D01*
X101768796Y-52671626D02*
X101840225Y-52743055D01*
X101840225Y-52743055D02*
X101911653Y-52885912D01*
X101911653Y-52885912D02*
X101911653Y-53100198D01*
X101911653Y-53100198D02*
X101840225Y-53243055D01*
X101840225Y-53243055D02*
X101768796Y-53314484D01*
X101768796Y-53314484D02*
X101625939Y-53385912D01*
X101625939Y-53385912D02*
X101054510Y-53385912D01*
X101054510Y-53385912D02*
X101054510Y-51885912D01*
X101054510Y-51885912D02*
X101554510Y-51885912D01*
X101554510Y-51885912D02*
X101697368Y-51957341D01*
X101697368Y-51957341D02*
X101768796Y-52028769D01*
X101768796Y-52028769D02*
X101840225Y-52171626D01*
X101840225Y-52171626D02*
X101840225Y-52314484D01*
X101840225Y-52314484D02*
X101768796Y-52457341D01*
X101768796Y-52457341D02*
X101697368Y-52528769D01*
X101697368Y-52528769D02*
X101554510Y-52600198D01*
X101554510Y-52600198D02*
X101054510Y-52600198D01*
X102554510Y-53385912D02*
X102554510Y-51885912D01*
X102554510Y-51885912D02*
X103125939Y-51885912D01*
X103125939Y-51885912D02*
X103268796Y-51957341D01*
X103268796Y-51957341D02*
X103340225Y-52028769D01*
X103340225Y-52028769D02*
X103411653Y-52171626D01*
X103411653Y-52171626D02*
X103411653Y-52385912D01*
X103411653Y-52385912D02*
X103340225Y-52528769D01*
X103340225Y-52528769D02*
X103268796Y-52600198D01*
X103268796Y-52600198D02*
X103125939Y-52671626D01*
X103125939Y-52671626D02*
X102554510Y-52671626D01*
X105197367Y-53385912D02*
X105197367Y-51885912D01*
X105197367Y-51885912D02*
X105554510Y-51885912D01*
X105554510Y-51885912D02*
X105768796Y-51957341D01*
X105768796Y-51957341D02*
X105911653Y-52100198D01*
X105911653Y-52100198D02*
X105983082Y-52243055D01*
X105983082Y-52243055D02*
X106054510Y-52528769D01*
X106054510Y-52528769D02*
X106054510Y-52743055D01*
X106054510Y-52743055D02*
X105983082Y-53028769D01*
X105983082Y-53028769D02*
X105911653Y-53171626D01*
X105911653Y-53171626D02*
X105768796Y-53314484D01*
X105768796Y-53314484D02*
X105554510Y-53385912D01*
X105554510Y-53385912D02*
X105197367Y-53385912D01*
X106697367Y-52600198D02*
X107197367Y-52600198D01*
X107411653Y-53385912D02*
X106697367Y-53385912D01*
X106697367Y-53385912D02*
X106697367Y-51885912D01*
X106697367Y-51885912D02*
X107411653Y-51885912D01*
X108911653Y-53243055D02*
X108840225Y-53314484D01*
X108840225Y-53314484D02*
X108625939Y-53385912D01*
X108625939Y-53385912D02*
X108483082Y-53385912D01*
X108483082Y-53385912D02*
X108268796Y-53314484D01*
X108268796Y-53314484D02*
X108125939Y-53171626D01*
X108125939Y-53171626D02*
X108054510Y-53028769D01*
X108054510Y-53028769D02*
X107983082Y-52743055D01*
X107983082Y-52743055D02*
X107983082Y-52528769D01*
X107983082Y-52528769D02*
X108054510Y-52243055D01*
X108054510Y-52243055D02*
X108125939Y-52100198D01*
X108125939Y-52100198D02*
X108268796Y-51957341D01*
X108268796Y-51957341D02*
X108483082Y-51885912D01*
X108483082Y-51885912D02*
X108625939Y-51885912D01*
X108625939Y-51885912D02*
X108840225Y-51957341D01*
X108840225Y-51957341D02*
X108911653Y-52028769D01*
X110625939Y-52028769D02*
X110697367Y-51957341D01*
X110697367Y-51957341D02*
X110840225Y-51885912D01*
X110840225Y-51885912D02*
X111197367Y-51885912D01*
X111197367Y-51885912D02*
X111340225Y-51957341D01*
X111340225Y-51957341D02*
X111411653Y-52028769D01*
X111411653Y-52028769D02*
X111483082Y-52171626D01*
X111483082Y-52171626D02*
X111483082Y-52314484D01*
X111483082Y-52314484D02*
X111411653Y-52528769D01*
X111411653Y-52528769D02*
X110554510Y-53385912D01*
X110554510Y-53385912D02*
X111483082Y-53385912D01*
X112411653Y-51885912D02*
X112554510Y-51885912D01*
X112554510Y-51885912D02*
X112697367Y-51957341D01*
X112697367Y-51957341D02*
X112768796Y-52028769D01*
X112768796Y-52028769D02*
X112840224Y-52171626D01*
X112840224Y-52171626D02*
X112911653Y-52457341D01*
X112911653Y-52457341D02*
X112911653Y-52814484D01*
X112911653Y-52814484D02*
X112840224Y-53100198D01*
X112840224Y-53100198D02*
X112768796Y-53243055D01*
X112768796Y-53243055D02*
X112697367Y-53314484D01*
X112697367Y-53314484D02*
X112554510Y-53385912D01*
X112554510Y-53385912D02*
X112411653Y-53385912D01*
X112411653Y-53385912D02*
X112268796Y-53314484D01*
X112268796Y-53314484D02*
X112197367Y-53243055D01*
X112197367Y-53243055D02*
X112125938Y-53100198D01*
X112125938Y-53100198D02*
X112054510Y-52814484D01*
X112054510Y-52814484D02*
X112054510Y-52457341D01*
X112054510Y-52457341D02*
X112125938Y-52171626D01*
X112125938Y-52171626D02*
X112197367Y-52028769D01*
X112197367Y-52028769D02*
X112268796Y-51957341D01*
X112268796Y-51957341D02*
X112411653Y-51885912D01*
X113483081Y-52028769D02*
X113554509Y-51957341D01*
X113554509Y-51957341D02*
X113697367Y-51885912D01*
X113697367Y-51885912D02*
X114054509Y-51885912D01*
X114054509Y-51885912D02*
X114197367Y-51957341D01*
X114197367Y-51957341D02*
X114268795Y-52028769D01*
X114268795Y-52028769D02*
X114340224Y-52171626D01*
X114340224Y-52171626D02*
X114340224Y-52314484D01*
X114340224Y-52314484D02*
X114268795Y-52528769D01*
X114268795Y-52528769D02*
X113411652Y-53385912D01*
X113411652Y-53385912D02*
X114340224Y-53385912D01*
X115697366Y-51885912D02*
X114983080Y-51885912D01*
X114983080Y-51885912D02*
X114911652Y-52600198D01*
X114911652Y-52600198D02*
X114983080Y-52528769D01*
X114983080Y-52528769D02*
X115125938Y-52457341D01*
X115125938Y-52457341D02*
X115483080Y-52457341D01*
X115483080Y-52457341D02*
X115625938Y-52528769D01*
X115625938Y-52528769D02*
X115697366Y-52600198D01*
X115697366Y-52600198D02*
X115768795Y-52743055D01*
X115768795Y-52743055D02*
X115768795Y-53100198D01*
X115768795Y-53100198D02*
X115697366Y-53243055D01*
X115697366Y-53243055D02*
X115625938Y-53314484D01*
X115625938Y-53314484D02*
X115483080Y-53385912D01*
X115483080Y-53385912D02*
X115125938Y-53385912D01*
X115125938Y-53385912D02*
X114983080Y-53314484D01*
X114983080Y-53314484D02*
X114911652Y-53243055D01*
X101911653Y-55800828D02*
X101411653Y-55086542D01*
X101054510Y-55800828D02*
X101054510Y-54300828D01*
X101054510Y-54300828D02*
X101625939Y-54300828D01*
X101625939Y-54300828D02*
X101768796Y-54372257D01*
X101768796Y-54372257D02*
X101840225Y-54443685D01*
X101840225Y-54443685D02*
X101911653Y-54586542D01*
X101911653Y-54586542D02*
X101911653Y-54800828D01*
X101911653Y-54800828D02*
X101840225Y-54943685D01*
X101840225Y-54943685D02*
X101768796Y-55015114D01*
X101768796Y-55015114D02*
X101625939Y-55086542D01*
X101625939Y-55086542D02*
X101054510Y-55086542D01*
X102554510Y-55015114D02*
X103054510Y-55015114D01*
X103268796Y-55800828D02*
X102554510Y-55800828D01*
X102554510Y-55800828D02*
X102554510Y-54300828D01*
X102554510Y-54300828D02*
X103268796Y-54300828D01*
X103697368Y-54300828D02*
X104197368Y-55800828D01*
X104197368Y-55800828D02*
X104697368Y-54300828D01*
X106840224Y-55015114D02*
X107054510Y-55086542D01*
X107054510Y-55086542D02*
X107125939Y-55157971D01*
X107125939Y-55157971D02*
X107197367Y-55300828D01*
X107197367Y-55300828D02*
X107197367Y-55515114D01*
X107197367Y-55515114D02*
X107125939Y-55657971D01*
X107125939Y-55657971D02*
X107054510Y-55729400D01*
X107054510Y-55729400D02*
X106911653Y-55800828D01*
X106911653Y-55800828D02*
X106340224Y-55800828D01*
X106340224Y-55800828D02*
X106340224Y-54300828D01*
X106340224Y-54300828D02*
X106840224Y-54300828D01*
X106840224Y-54300828D02*
X106983082Y-54372257D01*
X106983082Y-54372257D02*
X107054510Y-54443685D01*
X107054510Y-54443685D02*
X107125939Y-54586542D01*
X107125939Y-54586542D02*
X107125939Y-54729400D01*
X107125939Y-54729400D02*
X107054510Y-54872257D01*
X107054510Y-54872257D02*
X106983082Y-54943685D01*
X106983082Y-54943685D02*
X106840224Y-55015114D01*
X106840224Y-55015114D02*
X106340224Y-55015114D01*
X101199171Y-61340225D02*
X101199171Y-60483082D01*
X101199171Y-60911653D02*
X102699171Y-60911653D01*
X102699171Y-60911653D02*
X102484885Y-60768796D01*
X102484885Y-60768796D02*
X102342028Y-60625939D01*
X102342028Y-60625939D02*
X102270600Y-60483082D01*
X102556314Y-61911653D02*
X102627742Y-61983081D01*
X102627742Y-61983081D02*
X102699171Y-62125939D01*
X102699171Y-62125939D02*
X102699171Y-62483081D01*
X102699171Y-62483081D02*
X102627742Y-62625939D01*
X102627742Y-62625939D02*
X102556314Y-62697367D01*
X102556314Y-62697367D02*
X102413457Y-62768796D01*
X102413457Y-62768796D02*
X102270600Y-62768796D01*
X102270600Y-62768796D02*
X102056314Y-62697367D01*
X102056314Y-62697367D02*
X101199171Y-61840224D01*
X101199171Y-61840224D02*
X101199171Y-62768796D01*
X102699171Y-64340224D02*
X101199171Y-64840224D01*
X101199171Y-64840224D02*
X102699171Y-65340224D01*
X101199171Y-66983080D02*
X102699171Y-66983080D01*
X102699171Y-66983080D02*
X102699171Y-67554509D01*
X102699171Y-67554509D02*
X102627742Y-67697366D01*
X102627742Y-67697366D02*
X102556314Y-67768795D01*
X102556314Y-67768795D02*
X102413457Y-67840223D01*
X102413457Y-67840223D02*
X102199171Y-67840223D01*
X102199171Y-67840223D02*
X102056314Y-67768795D01*
X102056314Y-67768795D02*
X101984885Y-67697366D01*
X101984885Y-67697366D02*
X101913457Y-67554509D01*
X101913457Y-67554509D02*
X101913457Y-66983080D01*
X102699171Y-68768795D02*
X102699171Y-69054509D01*
X102699171Y-69054509D02*
X102627742Y-69197366D01*
X102627742Y-69197366D02*
X102484885Y-69340223D01*
X102484885Y-69340223D02*
X102199171Y-69411652D01*
X102199171Y-69411652D02*
X101699171Y-69411652D01*
X101699171Y-69411652D02*
X101413457Y-69340223D01*
X101413457Y-69340223D02*
X101270600Y-69197366D01*
X101270600Y-69197366D02*
X101199171Y-69054509D01*
X101199171Y-69054509D02*
X101199171Y-68768795D01*
X101199171Y-68768795D02*
X101270600Y-68625938D01*
X101270600Y-68625938D02*
X101413457Y-68483080D01*
X101413457Y-68483080D02*
X101699171Y-68411652D01*
X101699171Y-68411652D02*
X102199171Y-68411652D01*
X102199171Y-68411652D02*
X102484885Y-68483080D01*
X102484885Y-68483080D02*
X102627742Y-68625938D01*
X102627742Y-68625938D02*
X102699171Y-68768795D01*
X102699171Y-69911652D02*
X101199171Y-70268795D01*
X101199171Y-70268795D02*
X102270600Y-70554509D01*
X102270600Y-70554509D02*
X101199171Y-70840224D01*
X101199171Y-70840224D02*
X102699171Y-71197367D01*
X101984885Y-71768795D02*
X101984885Y-72268795D01*
X101199171Y-72483081D02*
X101199171Y-71768795D01*
X101199171Y-71768795D02*
X102699171Y-71768795D01*
X102699171Y-71768795D02*
X102699171Y-72483081D01*
X101199171Y-73983081D02*
X101913457Y-73483081D01*
X101199171Y-73125938D02*
X102699171Y-73125938D01*
X102699171Y-73125938D02*
X102699171Y-73697367D01*
X102699171Y-73697367D02*
X102627742Y-73840224D01*
X102627742Y-73840224D02*
X102556314Y-73911653D01*
X102556314Y-73911653D02*
X102413457Y-73983081D01*
X102413457Y-73983081D02*
X102199171Y-73983081D01*
X102199171Y-73983081D02*
X102056314Y-73911653D01*
X102056314Y-73911653D02*
X101984885Y-73840224D01*
X101984885Y-73840224D02*
X101913457Y-73697367D01*
X101913457Y-73697367D02*
X101913457Y-73125938D01*
D11*
X155834819Y-72833333D02*
X156549104Y-72833333D01*
X156549104Y-72833333D02*
X156691961Y-72880952D01*
X156691961Y-72880952D02*
X156787200Y-72976190D01*
X156787200Y-72976190D02*
X156834819Y-73119047D01*
X156834819Y-73119047D02*
X156834819Y-73214285D01*
X156263390Y-72214285D02*
X156215771Y-72309523D01*
X156215771Y-72309523D02*
X156168152Y-72357142D01*
X156168152Y-72357142D02*
X156072914Y-72404761D01*
X156072914Y-72404761D02*
X156025295Y-72404761D01*
X156025295Y-72404761D02*
X155930057Y-72357142D01*
X155930057Y-72357142D02*
X155882438Y-72309523D01*
X155882438Y-72309523D02*
X155834819Y-72214285D01*
X155834819Y-72214285D02*
X155834819Y-72023809D01*
X155834819Y-72023809D02*
X155882438Y-71928571D01*
X155882438Y-71928571D02*
X155930057Y-71880952D01*
X155930057Y-71880952D02*
X156025295Y-71833333D01*
X156025295Y-71833333D02*
X156072914Y-71833333D01*
X156072914Y-71833333D02*
X156168152Y-71880952D01*
X156168152Y-71880952D02*
X156215771Y-71928571D01*
X156215771Y-71928571D02*
X156263390Y-72023809D01*
X156263390Y-72023809D02*
X156263390Y-72214285D01*
X156263390Y-72214285D02*
X156311009Y-72309523D01*
X156311009Y-72309523D02*
X156358628Y-72357142D01*
X156358628Y-72357142D02*
X156453866Y-72404761D01*
X156453866Y-72404761D02*
X156644342Y-72404761D01*
X156644342Y-72404761D02*
X156739580Y-72357142D01*
X156739580Y-72357142D02*
X156787200Y-72309523D01*
X156787200Y-72309523D02*
X156834819Y-72214285D01*
X156834819Y-72214285D02*
X156834819Y-72023809D01*
X156834819Y-72023809D02*
X156787200Y-71928571D01*
X156787200Y-71928571D02*
X156739580Y-71880952D01*
X156739580Y-71880952D02*
X156644342Y-71833333D01*
X156644342Y-71833333D02*
X156453866Y-71833333D01*
X156453866Y-71833333D02*
X156358628Y-71880952D01*
X156358628Y-71880952D02*
X156311009Y-71928571D01*
X156311009Y-71928571D02*
X156263390Y-72023809D01*
X142753333Y-80584819D02*
X142420000Y-80108628D01*
X142181905Y-80584819D02*
X142181905Y-79584819D01*
X142181905Y-79584819D02*
X142562857Y-79584819D01*
X142562857Y-79584819D02*
X142658095Y-79632438D01*
X142658095Y-79632438D02*
X142705714Y-79680057D01*
X142705714Y-79680057D02*
X142753333Y-79775295D01*
X142753333Y-79775295D02*
X142753333Y-79918152D01*
X142753333Y-79918152D02*
X142705714Y-80013390D01*
X142705714Y-80013390D02*
X142658095Y-80061009D01*
X142658095Y-80061009D02*
X142562857Y-80108628D01*
X142562857Y-80108628D02*
X142181905Y-80108628D01*
X143610476Y-79918152D02*
X143610476Y-80584819D01*
X143372381Y-79537200D02*
X143134286Y-80251485D01*
X143134286Y-80251485D02*
X143753333Y-80251485D01*
X122435714Y-94944104D02*
X122911904Y-94944104D01*
X122340476Y-95229819D02*
X122673809Y-94229819D01*
X122673809Y-94229819D02*
X123007142Y-95229819D01*
X123864285Y-95229819D02*
X123292857Y-95229819D01*
X123578571Y-95229819D02*
X123578571Y-94229819D01*
X123578571Y-94229819D02*
X123483333Y-94372676D01*
X123483333Y-94372676D02*
X123388095Y-94467914D01*
X123388095Y-94467914D02*
X123292857Y-94515533D01*
X162539104Y-59714285D02*
X162539104Y-59238095D01*
X162824819Y-59809523D02*
X161824819Y-59476190D01*
X161824819Y-59476190D02*
X162824819Y-59142857D01*
X161920057Y-58857142D02*
X161872438Y-58809523D01*
X161872438Y-58809523D02*
X161824819Y-58714285D01*
X161824819Y-58714285D02*
X161824819Y-58476190D01*
X161824819Y-58476190D02*
X161872438Y-58380952D01*
X161872438Y-58380952D02*
X161920057Y-58333333D01*
X161920057Y-58333333D02*
X162015295Y-58285714D01*
X162015295Y-58285714D02*
X162110533Y-58285714D01*
X162110533Y-58285714D02*
X162253390Y-58333333D01*
X162253390Y-58333333D02*
X162824819Y-58904761D01*
X162824819Y-58904761D02*
X162824819Y-58285714D01*
X103491905Y-74494819D02*
X103491905Y-73494819D01*
X103491905Y-73494819D02*
X103730000Y-73494819D01*
X103730000Y-73494819D02*
X103872857Y-73542438D01*
X103872857Y-73542438D02*
X103968095Y-73637676D01*
X103968095Y-73637676D02*
X104015714Y-73732914D01*
X104015714Y-73732914D02*
X104063333Y-73923390D01*
X104063333Y-73923390D02*
X104063333Y-74066247D01*
X104063333Y-74066247D02*
X104015714Y-74256723D01*
X104015714Y-74256723D02*
X103968095Y-74351961D01*
X103968095Y-74351961D02*
X103872857Y-74447200D01*
X103872857Y-74447200D02*
X103730000Y-74494819D01*
X103730000Y-74494819D02*
X103491905Y-74494819D01*
X104444286Y-73590057D02*
X104491905Y-73542438D01*
X104491905Y-73542438D02*
X104587143Y-73494819D01*
X104587143Y-73494819D02*
X104825238Y-73494819D01*
X104825238Y-73494819D02*
X104920476Y-73542438D01*
X104920476Y-73542438D02*
X104968095Y-73590057D01*
X104968095Y-73590057D02*
X105015714Y-73685295D01*
X105015714Y-73685295D02*
X105015714Y-73780533D01*
X105015714Y-73780533D02*
X104968095Y-73923390D01*
X104968095Y-73923390D02*
X104396667Y-74494819D01*
X104396667Y-74494819D02*
X105015714Y-74494819D01*
X136824819Y-87401666D02*
X136348628Y-87734999D01*
X136824819Y-87973094D02*
X135824819Y-87973094D01*
X135824819Y-87973094D02*
X135824819Y-87592142D01*
X135824819Y-87592142D02*
X135872438Y-87496904D01*
X135872438Y-87496904D02*
X135920057Y-87449285D01*
X135920057Y-87449285D02*
X136015295Y-87401666D01*
X136015295Y-87401666D02*
X136158152Y-87401666D01*
X136158152Y-87401666D02*
X136253390Y-87449285D01*
X136253390Y-87449285D02*
X136301009Y-87496904D01*
X136301009Y-87496904D02*
X136348628Y-87592142D01*
X136348628Y-87592142D02*
X136348628Y-87973094D01*
X135920057Y-87020713D02*
X135872438Y-86973094D01*
X135872438Y-86973094D02*
X135824819Y-86877856D01*
X135824819Y-86877856D02*
X135824819Y-86639761D01*
X135824819Y-86639761D02*
X135872438Y-86544523D01*
X135872438Y-86544523D02*
X135920057Y-86496904D01*
X135920057Y-86496904D02*
X136015295Y-86449285D01*
X136015295Y-86449285D02*
X136110533Y-86449285D01*
X136110533Y-86449285D02*
X136253390Y-86496904D01*
X136253390Y-86496904D02*
X136824819Y-87068332D01*
X136824819Y-87068332D02*
X136824819Y-86449285D01*
X100716666Y-97747319D02*
X100716666Y-98461604D01*
X100716666Y-98461604D02*
X100669047Y-98604461D01*
X100669047Y-98604461D02*
X100573809Y-98699700D01*
X100573809Y-98699700D02*
X100430952Y-98747319D01*
X100430952Y-98747319D02*
X100335714Y-98747319D01*
X101669047Y-97747319D02*
X101192857Y-97747319D01*
X101192857Y-97747319D02*
X101145238Y-98223509D01*
X101145238Y-98223509D02*
X101192857Y-98175890D01*
X101192857Y-98175890D02*
X101288095Y-98128271D01*
X101288095Y-98128271D02*
X101526190Y-98128271D01*
X101526190Y-98128271D02*
X101621428Y-98175890D01*
X101621428Y-98175890D02*
X101669047Y-98223509D01*
X101669047Y-98223509D02*
X101716666Y-98318747D01*
X101716666Y-98318747D02*
X101716666Y-98556842D01*
X101716666Y-98556842D02*
X101669047Y-98652080D01*
X101669047Y-98652080D02*
X101621428Y-98699700D01*
X101621428Y-98699700D02*
X101526190Y-98747319D01*
X101526190Y-98747319D02*
X101288095Y-98747319D01*
X101288095Y-98747319D02*
X101192857Y-98699700D01*
X101192857Y-98699700D02*
X101145238Y-98652080D01*
X151954819Y-68238094D02*
X150954819Y-68238094D01*
X150954819Y-68238094D02*
X150954819Y-67999999D01*
X150954819Y-67999999D02*
X151002438Y-67857142D01*
X151002438Y-67857142D02*
X151097676Y-67761904D01*
X151097676Y-67761904D02*
X151192914Y-67714285D01*
X151192914Y-67714285D02*
X151383390Y-67666666D01*
X151383390Y-67666666D02*
X151526247Y-67666666D01*
X151526247Y-67666666D02*
X151716723Y-67714285D01*
X151716723Y-67714285D02*
X151811961Y-67761904D01*
X151811961Y-67761904D02*
X151907200Y-67857142D01*
X151907200Y-67857142D02*
X151954819Y-67999999D01*
X151954819Y-67999999D02*
X151954819Y-68238094D01*
X150954819Y-67333332D02*
X150954819Y-66714285D01*
X150954819Y-66714285D02*
X151335771Y-67047618D01*
X151335771Y-67047618D02*
X151335771Y-66904761D01*
X151335771Y-66904761D02*
X151383390Y-66809523D01*
X151383390Y-66809523D02*
X151431009Y-66761904D01*
X151431009Y-66761904D02*
X151526247Y-66714285D01*
X151526247Y-66714285D02*
X151764342Y-66714285D01*
X151764342Y-66714285D02*
X151859580Y-66761904D01*
X151859580Y-66761904D02*
X151907200Y-66809523D01*
X151907200Y-66809523D02*
X151954819Y-66904761D01*
X151954819Y-66904761D02*
X151954819Y-67190475D01*
X151954819Y-67190475D02*
X151907200Y-67285713D01*
X151907200Y-67285713D02*
X151859580Y-67333332D01*
X152354819Y-77761904D02*
X151354819Y-77761904D01*
X152354819Y-77190476D02*
X151783390Y-77619047D01*
X151354819Y-77190476D02*
X151926247Y-77761904D01*
X156954819Y-84333333D02*
X157669104Y-84333333D01*
X157669104Y-84333333D02*
X157811961Y-84380952D01*
X157811961Y-84380952D02*
X157907200Y-84476190D01*
X157907200Y-84476190D02*
X157954819Y-84619047D01*
X157954819Y-84619047D02*
X157954819Y-84714285D01*
X156954819Y-83428571D02*
X156954819Y-83619047D01*
X156954819Y-83619047D02*
X157002438Y-83714285D01*
X157002438Y-83714285D02*
X157050057Y-83761904D01*
X157050057Y-83761904D02*
X157192914Y-83857142D01*
X157192914Y-83857142D02*
X157383390Y-83904761D01*
X157383390Y-83904761D02*
X157764342Y-83904761D01*
X157764342Y-83904761D02*
X157859580Y-83857142D01*
X157859580Y-83857142D02*
X157907200Y-83809523D01*
X157907200Y-83809523D02*
X157954819Y-83714285D01*
X157954819Y-83714285D02*
X157954819Y-83523809D01*
X157954819Y-83523809D02*
X157907200Y-83428571D01*
X157907200Y-83428571D02*
X157859580Y-83380952D01*
X157859580Y-83380952D02*
X157764342Y-83333333D01*
X157764342Y-83333333D02*
X157526247Y-83333333D01*
X157526247Y-83333333D02*
X157431009Y-83380952D01*
X157431009Y-83380952D02*
X157383390Y-83428571D01*
X157383390Y-83428571D02*
X157335771Y-83523809D01*
X157335771Y-83523809D02*
X157335771Y-83714285D01*
X157335771Y-83714285D02*
X157383390Y-83809523D01*
X157383390Y-83809523D02*
X157431009Y-83857142D01*
X157431009Y-83857142D02*
X157526247Y-83904761D01*
X140759580Y-75651666D02*
X140807200Y-75699285D01*
X140807200Y-75699285D02*
X140854819Y-75842142D01*
X140854819Y-75842142D02*
X140854819Y-75937380D01*
X140854819Y-75937380D02*
X140807200Y-76080237D01*
X140807200Y-76080237D02*
X140711961Y-76175475D01*
X140711961Y-76175475D02*
X140616723Y-76223094D01*
X140616723Y-76223094D02*
X140426247Y-76270713D01*
X140426247Y-76270713D02*
X140283390Y-76270713D01*
X140283390Y-76270713D02*
X140092914Y-76223094D01*
X140092914Y-76223094D02*
X139997676Y-76175475D01*
X139997676Y-76175475D02*
X139902438Y-76080237D01*
X139902438Y-76080237D02*
X139854819Y-75937380D01*
X139854819Y-75937380D02*
X139854819Y-75842142D01*
X139854819Y-75842142D02*
X139902438Y-75699285D01*
X139902438Y-75699285D02*
X139950057Y-75651666D01*
X140854819Y-74699285D02*
X140854819Y-75270713D01*
X140854819Y-74984999D02*
X139854819Y-74984999D01*
X139854819Y-74984999D02*
X139997676Y-75080237D01*
X139997676Y-75080237D02*
X140092914Y-75175475D01*
X140092914Y-75175475D02*
X140140533Y-75270713D01*
X106833333Y-83084819D02*
X106500000Y-82608628D01*
X106261905Y-83084819D02*
X106261905Y-82084819D01*
X106261905Y-82084819D02*
X106642857Y-82084819D01*
X106642857Y-82084819D02*
X106738095Y-82132438D01*
X106738095Y-82132438D02*
X106785714Y-82180057D01*
X106785714Y-82180057D02*
X106833333Y-82275295D01*
X106833333Y-82275295D02*
X106833333Y-82418152D01*
X106833333Y-82418152D02*
X106785714Y-82513390D01*
X106785714Y-82513390D02*
X106738095Y-82561009D01*
X106738095Y-82561009D02*
X106642857Y-82608628D01*
X106642857Y-82608628D02*
X106261905Y-82608628D01*
X107166667Y-82084819D02*
X107785714Y-82084819D01*
X107785714Y-82084819D02*
X107452381Y-82465771D01*
X107452381Y-82465771D02*
X107595238Y-82465771D01*
X107595238Y-82465771D02*
X107690476Y-82513390D01*
X107690476Y-82513390D02*
X107738095Y-82561009D01*
X107738095Y-82561009D02*
X107785714Y-82656247D01*
X107785714Y-82656247D02*
X107785714Y-82894342D01*
X107785714Y-82894342D02*
X107738095Y-82989580D01*
X107738095Y-82989580D02*
X107690476Y-83037200D01*
X107690476Y-83037200D02*
X107595238Y-83084819D01*
X107595238Y-83084819D02*
X107309524Y-83084819D01*
X107309524Y-83084819D02*
X107214286Y-83037200D01*
X107214286Y-83037200D02*
X107166667Y-82989580D01*
X132950057Y-61635238D02*
X132902438Y-61730476D01*
X132902438Y-61730476D02*
X132807200Y-61825714D01*
X132807200Y-61825714D02*
X132664342Y-61968571D01*
X132664342Y-61968571D02*
X132616723Y-62063809D01*
X132616723Y-62063809D02*
X132616723Y-62159047D01*
X132854819Y-62111428D02*
X132807200Y-62206666D01*
X132807200Y-62206666D02*
X132711961Y-62301904D01*
X132711961Y-62301904D02*
X132521485Y-62349523D01*
X132521485Y-62349523D02*
X132188152Y-62349523D01*
X132188152Y-62349523D02*
X131997676Y-62301904D01*
X131997676Y-62301904D02*
X131902438Y-62206666D01*
X131902438Y-62206666D02*
X131854819Y-62111428D01*
X131854819Y-62111428D02*
X131854819Y-61920952D01*
X131854819Y-61920952D02*
X131902438Y-61825714D01*
X131902438Y-61825714D02*
X131997676Y-61730476D01*
X131997676Y-61730476D02*
X132188152Y-61682857D01*
X132188152Y-61682857D02*
X132521485Y-61682857D01*
X132521485Y-61682857D02*
X132711961Y-61730476D01*
X132711961Y-61730476D02*
X132807200Y-61825714D01*
X132807200Y-61825714D02*
X132854819Y-61920952D01*
X132854819Y-61920952D02*
X132854819Y-62111428D01*
X132854819Y-60730476D02*
X132854819Y-61301904D01*
X132854819Y-61016190D02*
X131854819Y-61016190D01*
X131854819Y-61016190D02*
X131997676Y-61111428D01*
X131997676Y-61111428D02*
X132092914Y-61206666D01*
X132092914Y-61206666D02*
X132140533Y-61301904D01*
X143824819Y-60746666D02*
X143348628Y-61079999D01*
X143824819Y-61318094D02*
X142824819Y-61318094D01*
X142824819Y-61318094D02*
X142824819Y-60937142D01*
X142824819Y-60937142D02*
X142872438Y-60841904D01*
X142872438Y-60841904D02*
X142920057Y-60794285D01*
X142920057Y-60794285D02*
X143015295Y-60746666D01*
X143015295Y-60746666D02*
X143158152Y-60746666D01*
X143158152Y-60746666D02*
X143253390Y-60794285D01*
X143253390Y-60794285D02*
X143301009Y-60841904D01*
X143301009Y-60841904D02*
X143348628Y-60937142D01*
X143348628Y-60937142D02*
X143348628Y-61318094D01*
X143824819Y-59794285D02*
X143824819Y-60365713D01*
X143824819Y-60079999D02*
X142824819Y-60079999D01*
X142824819Y-60079999D02*
X142967676Y-60175237D01*
X142967676Y-60175237D02*
X143062914Y-60270475D01*
X143062914Y-60270475D02*
X143110533Y-60365713D01*
X146414819Y-90968094D02*
X145414819Y-90968094D01*
X145414819Y-90968094D02*
X145414819Y-90729999D01*
X145414819Y-90729999D02*
X145462438Y-90587142D01*
X145462438Y-90587142D02*
X145557676Y-90491904D01*
X145557676Y-90491904D02*
X145652914Y-90444285D01*
X145652914Y-90444285D02*
X145843390Y-90396666D01*
X145843390Y-90396666D02*
X145986247Y-90396666D01*
X145986247Y-90396666D02*
X146176723Y-90444285D01*
X146176723Y-90444285D02*
X146271961Y-90491904D01*
X146271961Y-90491904D02*
X146367200Y-90587142D01*
X146367200Y-90587142D02*
X146414819Y-90729999D01*
X146414819Y-90729999D02*
X146414819Y-90968094D01*
X146414819Y-89444285D02*
X146414819Y-90015713D01*
X146414819Y-89729999D02*
X145414819Y-89729999D01*
X145414819Y-89729999D02*
X145557676Y-89825237D01*
X145557676Y-89825237D02*
X145652914Y-89920475D01*
X145652914Y-89920475D02*
X145700533Y-90015713D01*
X124454819Y-97793333D02*
X125169104Y-97793333D01*
X125169104Y-97793333D02*
X125311961Y-97840952D01*
X125311961Y-97840952D02*
X125407200Y-97936190D01*
X125407200Y-97936190D02*
X125454819Y-98079047D01*
X125454819Y-98079047D02*
X125454819Y-98174285D01*
X125454819Y-96793333D02*
X125454819Y-97364761D01*
X125454819Y-97079047D02*
X124454819Y-97079047D01*
X124454819Y-97079047D02*
X124597676Y-97174285D01*
X124597676Y-97174285D02*
X124692914Y-97269523D01*
X124692914Y-97269523D02*
X124740533Y-97364761D01*
X149666666Y-94454819D02*
X149666666Y-95169104D01*
X149666666Y-95169104D02*
X149619047Y-95311961D01*
X149619047Y-95311961D02*
X149523809Y-95407200D01*
X149523809Y-95407200D02*
X149380952Y-95454819D01*
X149380952Y-95454819D02*
X149285714Y-95454819D01*
X150047619Y-94454819D02*
X150666666Y-94454819D01*
X150666666Y-94454819D02*
X150333333Y-94835771D01*
X150333333Y-94835771D02*
X150476190Y-94835771D01*
X150476190Y-94835771D02*
X150571428Y-94883390D01*
X150571428Y-94883390D02*
X150619047Y-94931009D01*
X150619047Y-94931009D02*
X150666666Y-95026247D01*
X150666666Y-95026247D02*
X150666666Y-95264342D01*
X150666666Y-95264342D02*
X150619047Y-95359580D01*
X150619047Y-95359580D02*
X150571428Y-95407200D01*
X150571428Y-95407200D02*
X150476190Y-95454819D01*
X150476190Y-95454819D02*
X150190476Y-95454819D01*
X150190476Y-95454819D02*
X150095238Y-95407200D01*
X150095238Y-95407200D02*
X150047619Y-95359580D01*
X111954819Y-49533333D02*
X112669104Y-49533333D01*
X112669104Y-49533333D02*
X112811961Y-49580952D01*
X112811961Y-49580952D02*
X112907200Y-49676190D01*
X112907200Y-49676190D02*
X112954819Y-49819047D01*
X112954819Y-49819047D02*
X112954819Y-49914285D01*
X112050057Y-49104761D02*
X112002438Y-49057142D01*
X112002438Y-49057142D02*
X111954819Y-48961904D01*
X111954819Y-48961904D02*
X111954819Y-48723809D01*
X111954819Y-48723809D02*
X112002438Y-48628571D01*
X112002438Y-48628571D02*
X112050057Y-48580952D01*
X112050057Y-48580952D02*
X112145295Y-48533333D01*
X112145295Y-48533333D02*
X112240533Y-48533333D01*
X112240533Y-48533333D02*
X112383390Y-48580952D01*
X112383390Y-48580952D02*
X112954819Y-49152380D01*
X112954819Y-49152380D02*
X112954819Y-48533333D01*
X163166666Y-51454819D02*
X163166666Y-52169104D01*
X163166666Y-52169104D02*
X163119047Y-52311961D01*
X163119047Y-52311961D02*
X163023809Y-52407200D01*
X163023809Y-52407200D02*
X162880952Y-52454819D01*
X162880952Y-52454819D02*
X162785714Y-52454819D01*
X164071428Y-51788152D02*
X164071428Y-52454819D01*
X163833333Y-51407200D02*
X163595238Y-52121485D01*
X163595238Y-52121485D02*
X164214285Y-52121485D01*
D12*
%TO.C,J8*%
X157380000Y-67380000D02*
X166620000Y-67380000D01*
X157380000Y-77620000D02*
X157380000Y-67380000D01*
X165000000Y-77620000D02*
X165000000Y-67380000D01*
X166100000Y-77620000D02*
X166100000Y-67380000D01*
X166620000Y-67380000D02*
X166620000Y-74700000D01*
X166620000Y-75300000D02*
X166620000Y-77620000D01*
X166620000Y-77620000D02*
X157380000Y-77620000D01*
X167230000Y-75440000D02*
X166620000Y-75000000D01*
X167230000Y-74560000D01*
X167230000Y-75440000D01*
G36*
X167230000Y-75440000D02*
G01*
X166620000Y-75000000D01*
X167230000Y-74560000D01*
X167230000Y-75440000D01*
G37*
%TO.C,R4*%
X138880000Y-82500000D02*
X139650000Y-82500000D01*
X146960000Y-82500000D02*
X146190000Y-82500000D01*
X139650000Y-81130000D02*
X146190000Y-81130000D01*
X146190000Y-83870000D01*
X139650000Y-83870000D01*
X139650000Y-81130000D01*
%TO.C,A1*%
X115400000Y-73055000D02*
X115400000Y-93635000D01*
X115400000Y-93635000D02*
X128230000Y-93635000D01*
X118070000Y-93635000D02*
X118070000Y-73055000D01*
X128230000Y-90965000D02*
X128230000Y-73055000D01*
X128230000Y-90965000D02*
X130900000Y-90965000D01*
X128230000Y-93635000D02*
X128230000Y-90965000D01*
X129500000Y-93635000D02*
X130900000Y-93635000D01*
X130900000Y-73055000D02*
X115400000Y-73055000D01*
X130900000Y-90965000D02*
X130900000Y-73055000D01*
X130900000Y-93635000D02*
X130900000Y-92235000D01*
%TO.C,A2*%
X153630000Y-55765000D02*
X153630000Y-62235000D01*
X153630000Y-62235000D02*
X161370000Y-62235000D01*
X161370000Y-55765000D02*
X153630000Y-55765000D01*
X161370000Y-58000000D02*
X161370000Y-55765000D01*
X161370000Y-62235000D02*
X161370000Y-60000000D01*
X161370000Y-60000000D02*
G75*
G02*
X161370000Y-58000000I0J1000000D01*
G01*
%TO.C,D2*%
X101670000Y-76455000D02*
X101670000Y-79545000D01*
X101670000Y-76455170D02*
G75*
G02*
X107220000Y-78000000I2560000J-1544830D01*
G01*
X107220000Y-78000000D02*
G75*
G02*
X101670000Y-79544830I-2990000J0D01*
G01*
X106730000Y-78000000D02*
G75*
G02*
X101730000Y-78000000I-2500000J0D01*
G01*
X101730000Y-78000000D02*
G75*
G02*
X106730000Y-78000000I2500000J0D01*
G01*
%TO.C,R2*%
X134000000Y-83195000D02*
X134000000Y-83965000D01*
X134000000Y-91275000D02*
X134000000Y-90505000D01*
X135370000Y-83965000D02*
X132630000Y-83965000D01*
X132630000Y-90505000D01*
X135370000Y-90505000D01*
X135370000Y-83965000D01*
%TO.C,J5*%
X100500000Y-87942500D02*
X110400000Y-87942500D01*
X100500000Y-97142500D02*
X100500000Y-87942500D01*
X104500000Y-97142500D02*
X100500000Y-97142500D01*
X109550000Y-87742500D02*
X110600000Y-87742500D01*
X110400000Y-87942500D02*
X110400000Y-90542500D01*
X110400000Y-94442500D02*
X110400000Y-97142500D01*
X110400000Y-97142500D02*
X108500000Y-97142500D01*
X110600000Y-88792500D02*
X110600000Y-87742500D01*
%TO.C,D3*%
X152530000Y-74120000D02*
X155470000Y-74120000D01*
X152530000Y-74240000D02*
X155470000Y-74240000D01*
X152530000Y-74360000D02*
X155470000Y-74360000D01*
X154000000Y-68680000D02*
X154000000Y-69700000D01*
X154000000Y-76160000D02*
X154000000Y-75140000D01*
X152530000Y-75140000D02*
X155470000Y-75140000D01*
X155470000Y-69700000D01*
X152530000Y-69700000D01*
X152530000Y-75140000D01*
%TO.C,J6*%
X158590000Y-78940000D02*
X158590000Y-79860000D01*
X158590000Y-79860000D02*
X160190000Y-79860000D01*
X158590000Y-88140000D02*
X158590000Y-89060000D01*
X158590000Y-89060000D02*
X166410000Y-89060000D01*
X160190000Y-78940000D02*
X160190000Y-79860000D01*
X160190000Y-79860000D02*
X160190000Y-80140000D01*
X160190000Y-87860000D02*
X158975000Y-87860000D01*
X160190000Y-87860000D02*
X160190000Y-88140000D01*
X160190000Y-88140000D02*
X158590000Y-88140000D01*
X160190000Y-89060000D02*
X160190000Y-88140000D01*
X162050000Y-81500000D02*
X166410000Y-81500000D01*
X162050000Y-86500000D02*
X162050000Y-81500000D01*
X162550000Y-79700000D02*
X164150000Y-79700000D01*
X162550000Y-80700000D02*
X162550000Y-79700000D01*
X162550000Y-87300000D02*
X162550000Y-88300000D01*
X162550000Y-88300000D02*
X164150000Y-88300000D01*
X164150000Y-79700000D02*
X164150000Y-80700000D01*
X164150000Y-80700000D02*
X162550000Y-80700000D01*
X164150000Y-87300000D02*
X162550000Y-87300000D01*
X164150000Y-87300000D02*
X166410000Y-87300000D01*
X164150000Y-87800000D02*
X166410000Y-87800000D01*
X164150000Y-88300000D02*
X164150000Y-87300000D01*
X166410000Y-78940000D02*
X158590000Y-78940000D01*
X166410000Y-86500000D02*
X162050000Y-86500000D01*
X166410000Y-89060000D02*
X166410000Y-78940000D01*
%TO.C,C1*%
X134960000Y-75725000D02*
X132779000Y-75725000D01*
X134960000Y-75765000D02*
X132782000Y-75765000D01*
X134960000Y-75805000D02*
X132786000Y-75805000D01*
X134960000Y-75845000D02*
X132790000Y-75845000D01*
X134960000Y-75885000D02*
X132795000Y-75885000D01*
X134960000Y-75925000D02*
X132800000Y-75925000D01*
X134960000Y-75965000D02*
X132805000Y-75965000D01*
X134960000Y-76005000D02*
X132812000Y-76005000D01*
X134960000Y-76045000D02*
X132818000Y-76045000D01*
X134960000Y-76085000D02*
X132826000Y-76085000D01*
X134960000Y-76125000D02*
X132833000Y-76125000D01*
X134960000Y-76165000D02*
X132841000Y-76165000D01*
X134960000Y-76205000D02*
X132850000Y-76205000D01*
X134960000Y-76245000D02*
X132860000Y-76245000D01*
X134960000Y-76285000D02*
X132869000Y-76285000D01*
X134960000Y-76325000D02*
X132880000Y-76325000D01*
X134960000Y-76365000D02*
X132891000Y-76365000D01*
X134960000Y-76405000D02*
X132902000Y-76405000D01*
X134960000Y-76445000D02*
X132914000Y-76445000D01*
X134960000Y-76485000D02*
X132927000Y-76485000D01*
X134960000Y-76525000D02*
X132940000Y-76525000D01*
X134960000Y-76565000D02*
X132953000Y-76565000D01*
X134960000Y-76605000D02*
X132968000Y-76605000D01*
X134960000Y-76645000D02*
X132983000Y-76645000D01*
X134960000Y-76685000D02*
X132998000Y-76685000D01*
X134960000Y-76725000D02*
X133014000Y-76725000D01*
X134960000Y-76765000D02*
X133031000Y-76765000D01*
X134960000Y-76805000D02*
X133048000Y-76805000D01*
X134960000Y-76845000D02*
X133066000Y-76845000D01*
X134960000Y-76885000D02*
X133085000Y-76885000D01*
X134960000Y-76925000D02*
X133104000Y-76925000D01*
X134960000Y-76965000D02*
X133124000Y-76965000D01*
X134960000Y-77005000D02*
X133145000Y-77005000D01*
X134960000Y-77045000D02*
X133166000Y-77045000D01*
X134960000Y-77085000D02*
X133188000Y-77085000D01*
X134960000Y-77125000D02*
X133211000Y-77125000D01*
X134960000Y-77165000D02*
X133235000Y-77165000D01*
X134960000Y-77205000D02*
X133259000Y-77205000D01*
X134960000Y-77245000D02*
X133284000Y-77245000D01*
X134960000Y-77285000D02*
X133310000Y-77285000D01*
X134960000Y-77325000D02*
X133337000Y-77325000D01*
X134960000Y-77365000D02*
X133364000Y-77365000D01*
X134960000Y-77405000D02*
X133393000Y-77405000D01*
X134960000Y-77445000D02*
X133423000Y-77445000D01*
X134960000Y-77485000D02*
X133453000Y-77485000D01*
X134960000Y-77525000D02*
X133484000Y-77525000D01*
X134960000Y-77565000D02*
X133517000Y-77565000D01*
X134960000Y-77605000D02*
X133550000Y-77605000D01*
X134960000Y-77645000D02*
X133585000Y-77645000D01*
X134960000Y-77685000D02*
X133621000Y-77685000D01*
X134960000Y-77725000D02*
X133658000Y-77725000D01*
X134960000Y-77765000D02*
X133696000Y-77765000D01*
X136402000Y-78725000D02*
X135598000Y-78725000D01*
X136633000Y-78685000D02*
X135367000Y-78685000D01*
X136801000Y-78645000D02*
X135199000Y-78645000D01*
X136939000Y-78605000D02*
X135061000Y-78605000D01*
X137058000Y-78565000D02*
X134942000Y-78565000D01*
X137165000Y-78525000D02*
X134835000Y-78525000D01*
X137261000Y-78485000D02*
X134739000Y-78485000D01*
X137350000Y-78445000D02*
X134650000Y-78445000D01*
X137432000Y-78405000D02*
X134568000Y-78405000D01*
X137509000Y-78365000D02*
X134491000Y-78365000D01*
X137581000Y-78325000D02*
X134419000Y-78325000D01*
X137649000Y-78285000D02*
X134351000Y-78285000D01*
X137714000Y-78245000D02*
X134286000Y-78245000D01*
X137775000Y-78205000D02*
X134225000Y-78205000D01*
X137834000Y-78165000D02*
X134166000Y-78165000D01*
X137839000Y-71984759D02*
X137839000Y-72614759D01*
X137890000Y-78125000D02*
X134110000Y-78125000D01*
X137943000Y-78085000D02*
X134057000Y-78085000D01*
X137995000Y-78045000D02*
X134005000Y-78045000D01*
X138044000Y-78005000D02*
X133956000Y-78005000D01*
X138091000Y-77965000D02*
X133909000Y-77965000D01*
X138137000Y-77925000D02*
X133863000Y-77925000D01*
X138154000Y-72299759D02*
X137524000Y-72299759D01*
X138181000Y-77885000D02*
X133819000Y-77885000D01*
X138223000Y-77845000D02*
X133777000Y-77845000D01*
X138264000Y-77805000D02*
X133736000Y-77805000D01*
X138304000Y-77765000D02*
X137040000Y-77765000D01*
X138342000Y-77725000D02*
X137040000Y-77725000D01*
X138379000Y-77685000D02*
X137040000Y-77685000D01*
X138415000Y-77645000D02*
X137040000Y-77645000D01*
X138450000Y-77605000D02*
X137040000Y-77605000D01*
X138483000Y-77565000D02*
X137040000Y-77565000D01*
X138516000Y-77525000D02*
X137040000Y-77525000D01*
X138547000Y-77485000D02*
X137040000Y-77485000D01*
X138577000Y-77445000D02*
X137040000Y-77445000D01*
X138607000Y-77405000D02*
X137040000Y-77405000D01*
X138636000Y-77365000D02*
X137040000Y-77365000D01*
X138663000Y-77325000D02*
X137040000Y-77325000D01*
X138690000Y-77285000D02*
X137040000Y-77285000D01*
X138716000Y-77245000D02*
X137040000Y-77245000D01*
X138741000Y-77205000D02*
X137040000Y-77205000D01*
X138765000Y-77165000D02*
X137040000Y-77165000D01*
X138789000Y-77125000D02*
X137040000Y-77125000D01*
X138812000Y-77085000D02*
X137040000Y-77085000D01*
X138834000Y-77045000D02*
X137040000Y-77045000D01*
X138855000Y-77005000D02*
X137040000Y-77005000D01*
X138876000Y-76965000D02*
X137040000Y-76965000D01*
X138896000Y-76925000D02*
X137040000Y-76925000D01*
X138915000Y-76885000D02*
X137040000Y-76885000D01*
X138934000Y-76845000D02*
X137040000Y-76845000D01*
X138952000Y-76805000D02*
X137040000Y-76805000D01*
X138969000Y-76765000D02*
X137040000Y-76765000D01*
X138986000Y-76725000D02*
X137040000Y-76725000D01*
X139002000Y-76685000D02*
X137040000Y-76685000D01*
X139017000Y-76645000D02*
X137040000Y-76645000D01*
X139032000Y-76605000D02*
X137040000Y-76605000D01*
X139047000Y-76565000D02*
X137040000Y-76565000D01*
X139060000Y-76525000D02*
X137040000Y-76525000D01*
X139073000Y-76485000D02*
X137040000Y-76485000D01*
X139086000Y-76445000D02*
X137040000Y-76445000D01*
X139098000Y-76405000D02*
X137040000Y-76405000D01*
X139109000Y-76365000D02*
X137040000Y-76365000D01*
X139120000Y-76325000D02*
X137040000Y-76325000D01*
X139131000Y-76285000D02*
X137040000Y-76285000D01*
X139140000Y-76245000D02*
X137040000Y-76245000D01*
X139150000Y-76205000D02*
X137040000Y-76205000D01*
X139159000Y-76165000D02*
X137040000Y-76165000D01*
X139167000Y-76125000D02*
X137040000Y-76125000D01*
X139174000Y-76085000D02*
X137040000Y-76085000D01*
X139182000Y-76045000D02*
X137040000Y-76045000D01*
X139188000Y-76005000D02*
X137040000Y-76005000D01*
X139195000Y-75965000D02*
X137040000Y-75965000D01*
X139200000Y-75925000D02*
X137040000Y-75925000D01*
X139205000Y-75885000D02*
X137040000Y-75885000D01*
X139210000Y-75845000D02*
X137040000Y-75845000D01*
X139214000Y-75805000D02*
X137040000Y-75805000D01*
X139218000Y-75765000D02*
X137040000Y-75765000D01*
X139221000Y-75725000D02*
X137040000Y-75725000D01*
X139224000Y-75685000D02*
X132776000Y-75685000D01*
X139226000Y-75645000D02*
X132774000Y-75645000D01*
X139228000Y-75605000D02*
X132772000Y-75605000D01*
X139229000Y-75565000D02*
X132771000Y-75565000D01*
X139230000Y-75485000D02*
X132770000Y-75485000D01*
X139230000Y-75525000D02*
X132770000Y-75525000D01*
X139270000Y-75485000D02*
G75*
G02*
X132730000Y-75485000I-3270000J0D01*
G01*
X132730000Y-75485000D02*
G75*
G02*
X139270000Y-75485000I3270000J0D01*
G01*
%TO.C,R3*%
X102960000Y-85000000D02*
X103730000Y-85000000D01*
X111040000Y-85000000D02*
X110270000Y-85000000D01*
X103730000Y-83630000D02*
X110270000Y-83630000D01*
X110270000Y-86370000D01*
X103730000Y-86370000D01*
X103730000Y-83630000D01*
%TO.C,Q1*%
X133240000Y-56430000D02*
X137860000Y-56430000D01*
X133240000Y-59690000D02*
X134620000Y-59690000D01*
X133240000Y-63390000D02*
X134620000Y-63390000D01*
X133240000Y-66650000D02*
X133240000Y-56430000D01*
X134620000Y-66650000D02*
X134620000Y-56430000D01*
X137860000Y-56430000D02*
X137860000Y-66650000D01*
X137860000Y-66650000D02*
X133240000Y-66650000D01*
%TO.C,R1*%
X141000000Y-56540000D02*
X141000000Y-57310000D01*
X141000000Y-64620000D02*
X141000000Y-63850000D01*
X142370000Y-57310000D02*
X139630000Y-57310000D01*
X139630000Y-63850000D01*
X142370000Y-63850000D01*
X142370000Y-57310000D01*
%TO.C,D1*%
X143545000Y-87670000D02*
X140455000Y-87670000D01*
X142000000Y-93220000D02*
G75*
G02*
X140455170Y-87670000I0J2990000D01*
G01*
X143544830Y-87670000D02*
G75*
G02*
X142000000Y-93220000I-1544830J-2560000D01*
G01*
X144500000Y-90230000D02*
G75*
G02*
X139500000Y-90230000I-2500000J0D01*
G01*
X139500000Y-90230000D02*
G75*
G02*
X144500000Y-90230000I2500000J0D01*
G01*
%TO.C,J4*%
X144330000Y-47820000D02*
X144330000Y-50580000D01*
X162220000Y-47820000D02*
X144330000Y-47820000D01*
X162220000Y-47820000D02*
X162220000Y-50580000D01*
X162220000Y-50580000D02*
X144330000Y-50580000D01*
X163490000Y-47820000D02*
X164397818Y-47820000D01*
X164397818Y-47820000D02*
X164870000Y-48287204D01*
X164870000Y-48287204D02*
X164870000Y-49200000D01*
%TD*%
M02*
