%TF.GenerationSoftware,KiCad,Pcbnew,9.0.6*%
%TF.CreationDate,2025-12-08T16:48:47+08:00*%
%TF.ProjectId,pressure_encoder_board,70726573-7375-4726-955f-656e636f6465,rev?*%
%TF.SameCoordinates,Original*%
%TF.FileFunction,Copper,L1,Top*%
%TF.FilePolarity,Positive*%
%FSLAX46Y46*%
G04 Gerber Fmt 4.6, Leading zero omitted, Abs format (unit mm)*
G04 Created by KiCad (PCBNEW 9.0.6) date 2025-12-08 16:48:47*
%MOMM*%
%LPD*%
G01*
G04 APERTURE LIST*
G04 Aperture macros list*
%AMRoundRect*
0 Rectangle with rounded corners*
0 $1 Rounding radius*
0 $2 $3 $4 $5 $6 $7 $8 $9 X,Y pos of 4 corners*
0 Add a 4 corners polygon primitive as box body*
4,1,4,$2,$3,$4,$5,$6,$7,$8,$9,$2,$3,0*
0 Add four circle primitives for the rounded corners*
1,1,$1+$1,$2,$3*
1,1,$1+$1,$4,$5*
1,1,$1+$1,$6,$7*
1,1,$1+$1,$8,$9*
0 Add four rect primitives between the rounded corners*
20,1,$1+$1,$2,$3,$4,$5,0*
20,1,$1+$1,$4,$5,$6,$7,0*
20,1,$1+$1,$6,$7,$8,$9,0*
20,1,$1+$1,$8,$9,$2,$3,0*%
G04 Aperture macros list end*
%TA.AperFunction,ComponentPad*%
%ADD10RoundRect,0.250000X1.050000X-1.050000X1.050000X1.050000X-1.050000X1.050000X-1.050000X-1.050000X0*%
%TD*%
%TA.AperFunction,ComponentPad*%
%ADD11C,2.600000*%
%TD*%
%TA.AperFunction,ComponentPad*%
%ADD12R,1.600000X1.600000*%
%TD*%
%TA.AperFunction,ComponentPad*%
%ADD13O,1.600000X1.600000*%
%TD*%
%TA.AperFunction,ComponentPad*%
%ADD14RoundRect,0.250000X-0.550000X0.550000X-0.550000X-0.550000X0.550000X-0.550000X0.550000X0.550000X0*%
%TD*%
%TA.AperFunction,ComponentPad*%
%ADD15C,1.600000*%
%TD*%
%TA.AperFunction,ComponentPad*%
%ADD16R,1.800000X1.800000*%
%TD*%
%TA.AperFunction,ComponentPad*%
%ADD17C,1.800000*%
%TD*%
%TA.AperFunction,ComponentPad*%
%ADD18R,3.500000X3.500000*%
%TD*%
%TA.AperFunction,ComponentPad*%
%ADD19RoundRect,0.750000X-0.750000X-1.000000X0.750000X-1.000000X0.750000X1.000000X-0.750000X1.000000X0*%
%TD*%
%TA.AperFunction,ComponentPad*%
%ADD20RoundRect,0.875000X-0.875000X-0.875000X0.875000X-0.875000X0.875000X0.875000X-0.875000X0.875000X0*%
%TD*%
%TA.AperFunction,ComponentPad*%
%ADD21RoundRect,0.249999X0.850001X-0.850001X0.850001X0.850001X-0.850001X0.850001X-0.850001X-0.850001X0*%
%TD*%
%TA.AperFunction,ComponentPad*%
%ADD22C,2.200000*%
%TD*%
%TA.AperFunction,ComponentPad*%
%ADD23RoundRect,0.250000X0.625000X-0.350000X0.625000X0.350000X-0.625000X0.350000X-0.625000X-0.350000X0*%
%TD*%
%TA.AperFunction,ComponentPad*%
%ADD24O,1.750000X1.200000*%
%TD*%
%TA.AperFunction,ComponentPad*%
%ADD25R,2.000000X1.905000*%
%TD*%
%TA.AperFunction,ComponentPad*%
%ADD26O,2.000000X1.905000*%
%TD*%
%TA.AperFunction,ComponentPad*%
%ADD27R,1.700000X1.700000*%
%TD*%
%TA.AperFunction,ComponentPad*%
%ADD28C,1.700000*%
%TD*%
%TA.AperFunction,ViaPad*%
%ADD29C,1.200000*%
%TD*%
%TA.AperFunction,Conductor*%
%ADD30C,1.000000*%
%TD*%
G04 APERTURE END LIST*
D10*
%TO.P,J8,1,Pin_1*%
%TO.N,Net-(A1-VMOT)*%
X161500000Y-75000000D03*
D11*
%TO.P,J8,2,Pin_2*%
%TO.N,Net-(D3-A)*%
X161500000Y-70000000D03*
%TD*%
D12*
%TO.P,A1,1,GND*%
%TO.N,GND*%
X129500000Y-92235000D03*
D13*
%TO.P,A1,2,~{FLT}*%
%TO.N,Net-(A1-~{FLT})*%
X129500000Y-89695000D03*
%TO.P,A1,3,A2*%
%TO.N,Net-(A1-A2)*%
X129500000Y-87155000D03*
%TO.P,A1,4,A1*%
%TO.N,Net-(A1-A1)*%
X129500000Y-84615000D03*
%TO.P,A1,5,B1*%
%TO.N,Net-(A1-B1)*%
X129500000Y-82075000D03*
%TO.P,A1,6,B2*%
%TO.N,Net-(A1-B2)*%
X129500000Y-79535000D03*
%TO.P,A1,7,GND*%
%TO.N,GND*%
X129500000Y-76995000D03*
%TO.P,A1,8,VMOT*%
%TO.N,Net-(A1-VMOT)*%
X129500000Y-74455000D03*
%TO.P,A1,9,~{EN}*%
%TO.N,GND*%
X116800000Y-74455000D03*
%TO.P,A1,10,M0*%
X116800000Y-76995000D03*
%TO.P,A1,11,M1*%
X116800000Y-79535000D03*
%TO.P,A1,12,M2*%
X116800000Y-82075000D03*
%TO.P,A1,13,~{RST}*%
%TO.N,+5V*%
X116800000Y-84615000D03*
%TO.P,A1,14,~{SLP}*%
X116800000Y-87155000D03*
%TO.P,A1,15,STEP*%
%TO.N,/8*%
X116800000Y-89695000D03*
%TO.P,A1,16,DIR*%
%TO.N,/\u002A9*%
X116800000Y-92235000D03*
%TD*%
D14*
%TO.P,A2,1,DO*%
%TO.N,unconnected-(A2-DO-Pad1)*%
X160040000Y-53920000D03*
D15*
%TO.P,A2,2,DIN*%
%TO.N,+5V*%
X157500000Y-53920000D03*
%TO.P,A2,3,VDD*%
%TO.N,GND*%
X154960000Y-53920000D03*
%TO.P,A2,4,NC*%
%TO.N,unconnected-(A2-NC-Pad4)*%
X154960000Y-64080000D03*
%TO.P,A2,5,VCC*%
%TO.N,/A0*%
X157500000Y-64080000D03*
%TO.P,A2,6,VSS*%
%TO.N,unconnected-(A2-VSS-Pad6)*%
X160040000Y-64080000D03*
%TD*%
D16*
%TO.P,D2,1,K*%
%TO.N,GND*%
X102960000Y-78000000D03*
D17*
%TO.P,D2,2,A*%
%TO.N,Net-(D2-A)*%
X105500000Y-78000000D03*
%TD*%
D15*
%TO.P,R2,1*%
%TO.N,Net-(D1-K)*%
X134000000Y-82155000D03*
%TO.P,R2,2*%
%TO.N,Net-(A1-~{FLT})*%
X134000000Y-92315000D03*
%TD*%
D18*
%TO.P,J5,1*%
%TO.N,Net-(A1-VMOT)*%
X109500000Y-92542500D03*
D19*
%TO.P,J5,2*%
%TO.N,GND*%
X103500000Y-92542500D03*
D20*
%TO.P,J5,3*%
%TO.N,unconnected-(J5-Pad3)*%
X106500000Y-97242500D03*
%TD*%
D21*
%TO.P,D3,1,K*%
%TO.N,Net-(A1-VMOT)*%
X154000000Y-77500000D03*
D22*
%TO.P,D3,2,A*%
%TO.N,Net-(D3-A)*%
X154000000Y-67340000D03*
%TD*%
D23*
%TO.P,J6,1,Pin_1*%
%TO.N,Net-(A1-A1)*%
X160050000Y-87000000D03*
D24*
%TO.P,J6,2,Pin_2*%
%TO.N,Net-(A1-A2)*%
X160050000Y-85000000D03*
%TO.P,J6,3,Pin_3*%
%TO.N,Net-(A1-B1)*%
X160050000Y-83000000D03*
%TO.P,J6,4,Pin_4*%
%TO.N,Net-(A1-B2)*%
X160050000Y-81000000D03*
%TD*%
D14*
%TO.P,C1,1*%
%TO.N,Net-(A1-VMOT)*%
X136000000Y-74235000D03*
D15*
%TO.P,C1,2*%
%TO.N,GND*%
X136000000Y-76735000D03*
%TD*%
%TO.P,R3,1*%
%TO.N,Net-(A1-VMOT)*%
X101920000Y-85000000D03*
%TO.P,R3,2*%
%TO.N,Net-(D2-A)*%
X112080000Y-85000000D03*
%TD*%
D25*
%TO.P,Q1,1,B*%
%TO.N,Net-(Q1-B)*%
X136500000Y-64080000D03*
D26*
%TO.P,Q1,2,C*%
%TO.N,Net-(D3-A)*%
X136500000Y-61540000D03*
%TO.P,Q1,3,E*%
%TO.N,GND*%
X136500000Y-59000000D03*
%TD*%
D15*
%TO.P,R1,1*%
%TO.N,/\u002A10*%
X141000000Y-55500000D03*
%TO.P,R1,2*%
%TO.N,Net-(Q1-B)*%
X141000000Y-65660000D03*
%TD*%
D16*
%TO.P,D1,1,K*%
%TO.N,Net-(D1-K)*%
X142000000Y-88960000D03*
D17*
%TO.P,D1,2,A*%
%TO.N,+5V*%
X142000000Y-91500000D03*
%TD*%
D27*
%TO.P,J1,1,Pin_1*%
%TO.N,unconnected-(J1-Pin_1-Pad1)*%
X127940000Y-97460000D03*
D28*
%TO.P,J1,2,Pin_2*%
%TO.N,/IOREF*%
X130480000Y-97460000D03*
%TO.P,J1,3,Pin_3*%
%TO.N,/~{RESET}*%
X133020000Y-97460000D03*
%TO.P,J1,4,Pin_4*%
%TO.N,+3V3*%
X135560000Y-97460000D03*
%TO.P,J1,5,Pin_5*%
%TO.N,+5V*%
X138100000Y-97460000D03*
%TO.P,J1,6,Pin_6*%
%TO.N,GND*%
X140640000Y-97460000D03*
%TO.P,J1,7,Pin_7*%
X143180000Y-97460000D03*
%TO.P,J1,8,Pin_8*%
%TO.N,VCC*%
X145720000Y-97460000D03*
%TD*%
D27*
%TO.P,J3,1,Pin_1*%
%TO.N,/A0*%
X150800000Y-97460000D03*
D28*
%TO.P,J3,2,Pin_2*%
%TO.N,/A1*%
X153340000Y-97460000D03*
%TO.P,J3,3,Pin_3*%
%TO.N,/A2*%
X155880000Y-97460000D03*
%TO.P,J3,4,Pin_4*%
%TO.N,/A3*%
X158420000Y-97460000D03*
%TO.P,J3,5,Pin_5*%
%TO.N,/SDA{slash}A4*%
X160960000Y-97460000D03*
%TO.P,J3,6,Pin_6*%
%TO.N,/SCL{slash}A5*%
X163500000Y-97460000D03*
%TD*%
D27*
%TO.P,J2,1,Pin_1*%
%TO.N,/SCL{slash}A5*%
X118796000Y-49200000D03*
D28*
%TO.P,J2,2,Pin_2*%
%TO.N,/SDA{slash}A4*%
X121336000Y-49200000D03*
%TO.P,J2,3,Pin_3*%
%TO.N,/AREF*%
X123876000Y-49200000D03*
%TO.P,J2,4,Pin_4*%
%TO.N,GND*%
X126416000Y-49200000D03*
%TO.P,J2,5,Pin_5*%
%TO.N,/13*%
X128956000Y-49200000D03*
%TO.P,J2,6,Pin_6*%
%TO.N,/12*%
X131496000Y-49200000D03*
%TO.P,J2,7,Pin_7*%
%TO.N,/\u002A11*%
X134036000Y-49200000D03*
%TO.P,J2,8,Pin_8*%
%TO.N,/\u002A10*%
X136576000Y-49200000D03*
%TO.P,J2,9,Pin_9*%
%TO.N,/\u002A9*%
X139116000Y-49200000D03*
%TO.P,J2,10,Pin_10*%
%TO.N,/8*%
X141656000Y-49200000D03*
%TD*%
D27*
%TO.P,J4,1,Pin_1*%
%TO.N,/7*%
X145720000Y-49200000D03*
D28*
%TO.P,J4,2,Pin_2*%
%TO.N,/\u002A6*%
X148260000Y-49200000D03*
%TO.P,J4,3,Pin_3*%
%TO.N,/\u002A5*%
X150800000Y-49200000D03*
%TO.P,J4,4,Pin_4*%
%TO.N,/4*%
X153340000Y-49200000D03*
%TO.P,J4,5,Pin_5*%
%TO.N,/\u002A3*%
X155880000Y-49200000D03*
%TO.P,J4,6,Pin_6*%
%TO.N,/2*%
X158420000Y-49200000D03*
%TO.P,J4,7,Pin_7*%
%TO.N,/TX{slash}1*%
X160960000Y-49200000D03*
%TO.P,J4,8,Pin_8*%
%TO.N,/RX{slash}0*%
X163500000Y-49200000D03*
%TD*%
D29*
%TO.N,Net-(A1-A1)*%
X133102000Y-86431000D03*
%TD*%
D30*
%TO.N,GND*%
X138599000Y-95419200D02*
X138599000Y-95417100D01*
X135740000Y-76995000D02*
X129500000Y-76995000D01*
X118600000Y-74455000D02*
X116800000Y-74455000D01*
X149880000Y-59000000D02*
X136500000Y-59000000D01*
X137888000Y-94708100D02*
X137215000Y-94035000D01*
X137890000Y-94708100D02*
X137888000Y-94708100D01*
X136000000Y-76735000D02*
X135740000Y-76995000D01*
X133100000Y-94035000D02*
X131300000Y-92235000D01*
X134500000Y-57284000D02*
X126416000Y-49200000D01*
X131300000Y-92235000D02*
X129500000Y-92235000D01*
X137215000Y-94035000D02*
X136228000Y-94035000D01*
X138599000Y-95417100D02*
X137890000Y-94708100D01*
X129500000Y-76995000D02*
X121140000Y-76995000D01*
X136227000Y-94033500D02*
X133629000Y-94033500D01*
X133627000Y-94035000D02*
X133100000Y-94035000D01*
X134500000Y-59000000D02*
X134500000Y-57284000D01*
X154960000Y-53920000D02*
X149880000Y-59000000D01*
X136500000Y-59000000D02*
X134500000Y-59000000D01*
X133629000Y-94033500D02*
X133627000Y-94035000D01*
X121140000Y-76995000D02*
X118600000Y-74455000D01*
X140640000Y-97460000D02*
X143180000Y-97460000D01*
X136228000Y-94035000D02*
X136227000Y-94033500D01*
X140640000Y-97460000D02*
X138599000Y-95419200D01*
%TO.N,+5V*%
X138100000Y-97460000D02*
X136300000Y-95659500D01*
X127104000Y-95659500D02*
X118600000Y-87155000D01*
X118600000Y-87155000D02*
X116800000Y-87155000D01*
X136300000Y-95659500D02*
X127104000Y-95659500D01*
%TO.N,/\u002A10*%
X136576000Y-49200000D02*
X136576000Y-51076000D01*
X136576000Y-51076000D02*
X141000000Y-55500000D01*
%TO.N,Net-(A1-~{FLT})*%
X131380000Y-89695000D02*
X134000000Y-92315000D01*
X129500000Y-89695000D02*
X131380000Y-89695000D01*
%TO.N,Net-(A1-VMOT)*%
X156954000Y-77953900D02*
X158936000Y-77953900D01*
X116158000Y-72906900D02*
X102992000Y-86072200D01*
X156500000Y-77500000D02*
X154465000Y-77500000D01*
X161500000Y-75389600D02*
X161500000Y-75000000D01*
X129500000Y-74455000D02*
X135780000Y-74455000D01*
X106750000Y-92542500D02*
X109500000Y-92542500D01*
X101920000Y-85000000D02*
X102992000Y-86072200D01*
X127700000Y-74455000D02*
X126152000Y-72906900D01*
X129500000Y-74455000D02*
X127700000Y-74455000D01*
X126152000Y-72906900D02*
X116158000Y-72906900D01*
X154465000Y-77500000D02*
X151200000Y-74235000D01*
X102992000Y-86072200D02*
X106750000Y-89830000D01*
X154000000Y-77500000D02*
X156500000Y-77500000D01*
X156500000Y-77500000D02*
X156954000Y-77953900D01*
X158936000Y-77953900D02*
X161500000Y-75389600D01*
X106750000Y-89830000D02*
X106750000Y-92542500D01*
X135780000Y-74455000D02*
X136000000Y-74235000D01*
X151200000Y-74235000D02*
X136000000Y-74235000D01*
%TO.N,Net-(A1-B1)*%
X132925000Y-83699800D02*
X135500000Y-83699800D01*
X129500000Y-82075000D02*
X131300000Y-82075000D01*
X136200000Y-83000000D02*
X160050000Y-83000000D01*
X131300000Y-82075000D02*
X132925000Y-83699800D01*
X135500000Y-83699800D02*
X136200000Y-83000000D01*
%TO.N,Net-(A1-A2)*%
X129500000Y-87155000D02*
X131300000Y-87155000D01*
X132692000Y-85000000D02*
X160050000Y-85000000D01*
X131300000Y-86391700D02*
X132692000Y-85000000D01*
X131300000Y-87155000D02*
X131300000Y-86391700D01*
%TO.N,Net-(A1-A1)*%
X159481000Y-86431000D02*
X160050000Y-87000000D01*
X133102000Y-86431000D02*
X159481000Y-86431000D01*
%TO.N,Net-(A1-B2)*%
X160050000Y-79400000D02*
X131435000Y-79400000D01*
X131435000Y-79400000D02*
X131300000Y-79535000D01*
X160050000Y-81000000D02*
X160050000Y-79400000D01*
X131300000Y-79535000D02*
X129500000Y-79535000D01*
%TO.N,Net-(D3-A)*%
X148200000Y-61540000D02*
X154000000Y-67340000D01*
X156660000Y-70000000D02*
X161500000Y-70000000D01*
X154000000Y-67340000D02*
X156660000Y-70000000D01*
X136500000Y-61540000D02*
X148200000Y-61540000D01*
%TO.N,Net-(Q1-B)*%
X141000000Y-65660000D02*
X140080000Y-65660000D01*
X138500000Y-64080000D02*
X136500000Y-64080000D01*
X140080000Y-65660000D02*
X138500000Y-64080000D01*
%TD*%
M02*
