%TF.GenerationSoftware,KiCad,Pcbnew,9.0.6*%
%TF.CreationDate,2025-12-08T16:48:47+08:00*%
%TF.ProjectId,pressure_encoder_board,70726573-7375-4726-955f-656e636f6465,rev?*%
%TF.SameCoordinates,Original*%
%TF.FileFunction,Other,User*%
%FSLAX46Y46*%
G04 Gerber Fmt 4.6, Leading zero omitted, Abs format (unit mm)*
G04 Created by KiCad (PCBNEW 9.0.6) date 2025-12-08 16:48:47*
%MOMM*%
%LPD*%
G01*
G04 APERTURE LIST*
%ADD10C,0.050000*%
G04 APERTURE END LIST*
D10*
%TO.C,J8*%
X157000000Y-67000000D02*
X157000000Y-78000000D01*
X157000000Y-78000000D02*
X167000000Y-78000000D01*
X167000000Y-67000000D02*
X157000000Y-67000000D01*
X167000000Y-78000000D02*
X167000000Y-67000000D01*
%TO.C,A1*%
X115290000Y-72935000D02*
X115290000Y-93755000D01*
X115290000Y-72935000D02*
X131030000Y-72935000D01*
X131030000Y-93755000D02*
X115290000Y-93755000D01*
X131030000Y-93755000D02*
X131030000Y-72935000D01*
%TO.C,A2*%
X161560000Y-52870000D02*
X153440000Y-52870000D01*
X153440000Y-65130000D01*
X161560000Y-65130000D01*
X161560000Y-52870000D01*
%TO.C,D2*%
X101020000Y-74790000D02*
X101020000Y-81210000D01*
X101020000Y-81210000D02*
X107450000Y-81210000D01*
X107450000Y-74790000D02*
X101020000Y-74790000D01*
X107450000Y-81210000D02*
X107450000Y-74790000D01*
%TO.C,R2*%
X135500000Y-81105000D02*
X132500000Y-81105000D01*
X132500000Y-93365000D01*
X135500000Y-93365000D01*
X135500000Y-81105000D01*
%TO.C,MH1*%
X116940000Y-49200000D02*
G75*
G02*
X113540000Y-49200000I-1700000J0D01*
G01*
X113540000Y-49200000D02*
G75*
G02*
X116940000Y-49200000I1700000J0D01*
G01*
%TO.C,J5*%
X95500000Y-97292500D02*
X95500000Y-87792500D01*
X104500000Y-97292500D02*
X95500000Y-97292500D01*
X104500000Y-99292500D02*
X104500000Y-97292500D01*
X108500000Y-97292500D02*
X108500000Y-99292500D01*
X108500000Y-99292500D02*
X104500000Y-99292500D01*
X110500000Y-87792500D02*
X95500000Y-87792500D01*
X110500000Y-88042500D02*
X110500000Y-87792500D01*
X110500000Y-88042500D02*
X110500000Y-90542500D01*
X110500000Y-90542500D02*
X111500000Y-90542500D01*
X110500000Y-94542500D02*
X110500000Y-97292500D01*
X110500000Y-97292500D02*
X108500000Y-97292500D01*
X111500000Y-90542500D02*
X111500000Y-94542500D01*
X111500000Y-94542500D02*
X110500000Y-94542500D01*
%TO.C,D3*%
X152400000Y-78850000D02*
X155600000Y-78850000D01*
X155600000Y-65990000D01*
X152400000Y-65990000D01*
X152400000Y-78850000D01*
%TO.C,J6*%
X158200000Y-78550000D02*
X158200000Y-89450000D01*
X158200000Y-89450000D02*
X166800000Y-89450000D01*
X166800000Y-78550000D02*
X158200000Y-78550000D01*
X166800000Y-89450000D02*
X166800000Y-78550000D01*
%TO.C,C1*%
X139400000Y-75485000D02*
G75*
G02*
X132600000Y-75485000I-3400000J0D01*
G01*
X132600000Y-75485000D02*
G75*
G02*
X139400000Y-75485000I3400000J0D01*
G01*
%TO.C,R3*%
X100870000Y-83500000D02*
X113130000Y-83500000D01*
X113130000Y-86500000D01*
X100870000Y-86500000D01*
X100870000Y-83500000D01*
%TO.C,Q1*%
X133100000Y-66790000D02*
X138000000Y-66790000D01*
X138000000Y-56290000D01*
X133100000Y-56290000D01*
X133100000Y-66790000D01*
%TO.C,R1*%
X142500000Y-54450000D02*
X139500000Y-54450000D01*
X139500000Y-66710000D01*
X142500000Y-66710000D01*
X142500000Y-54450000D01*
%TO.C,MH2*%
X115670000Y-97460000D02*
G75*
G02*
X112270000Y-97460000I-1700000J0D01*
G01*
X112270000Y-97460000D02*
G75*
G02*
X115670000Y-97460000I1700000J0D01*
G01*
%TO.C,MH3*%
X167740000Y-64440000D02*
G75*
G02*
X164340000Y-64440000I-1700000J0D01*
G01*
X164340000Y-64440000D02*
G75*
G02*
X167740000Y-64440000I1700000J0D01*
G01*
%TO.C,D1*%
X138790000Y-87020000D02*
X138790000Y-93450000D01*
X138790000Y-93450000D02*
X145210000Y-93450000D01*
X145210000Y-87020000D02*
X138790000Y-87020000D01*
X145210000Y-93450000D02*
X145210000Y-87020000D01*
%TO.C,MH4*%
X167740000Y-92380000D02*
G75*
G02*
X164340000Y-92380000I-1700000J0D01*
G01*
X164340000Y-92380000D02*
G75*
G02*
X167740000Y-92380000I1700000J0D01*
G01*
%TO.C,J4*%
X143940000Y-47430000D02*
X143940000Y-50970000D01*
X143940000Y-50970000D02*
X165260000Y-50970000D01*
X164080026Y-47430000D02*
X143940000Y-47430000D01*
X164080026Y-47430000D02*
X165260000Y-48610505D01*
X165260000Y-50970000D02*
X165260000Y-48610505D01*
%TD*%
M02*
