M48
; DRILL file {KiCad 9.0.6} date 2025-12-08T16:48:50+0800
; FORMAT={-:-/ absolute / metric / decimal}
; #@! TF.CreationDate,2025-12-08T16:48:50+08:00
; #@! TF.GenerationSoftware,Kicad,Pcbnew,9.0.6
; #@! TF.FileFunction,Plated,1,2,PTH
FMAT,2
METRIC
; #@! TA.AperFunction,Plated,PTH,ComponentDrill
T1C0.750
; #@! TA.AperFunction,Plated,PTH,ViaDrill
T2C0.800
; #@! TA.AperFunction,Plated,PTH,ComponentDrill
T3C0.800
; #@! TA.AperFunction,Plated,PTH,ComponentDrill
T4C0.900
; #@! TA.AperFunction,Plated,PTH,ComponentDrill
T5C1.000
; #@! TA.AperFunction,Plated,PTH,ComponentDrill
T6C1.100
; #@! TA.AperFunction,Plated,PTH,ComponentDrill
T7C1.300
%
G90
G05
T1
X160.05Y-81.0
X160.05Y-83.0
X160.05Y-85.0
X160.05Y-87.0
T2
X133.102Y-86.431
T3
X101.92Y-85.0
X112.08Y-85.0
X116.8Y-74.455
X116.8Y-76.995
X116.8Y-79.535
X116.8Y-82.075
X116.8Y-84.615
X116.8Y-87.155
X116.8Y-89.695
X116.8Y-92.235
X129.5Y-74.455
X129.5Y-76.995
X129.5Y-79.535
X129.5Y-82.075
X129.5Y-84.615
X129.5Y-87.155
X129.5Y-89.695
X129.5Y-92.235
X134.0Y-82.155
X134.0Y-92.315
X136.0Y-74.235
X136.0Y-76.735
X141.0Y-55.5
X141.0Y-65.66
X154.96Y-53.92
X154.96Y-64.08
X157.5Y-53.92
X157.5Y-64.08
X160.04Y-53.92
X160.04Y-64.08
T4
X102.96Y-78.0
X105.5Y-78.0
X142.0Y-88.96
X142.0Y-91.5
T5
X118.796Y-49.2
X121.336Y-49.2
X123.876Y-49.2
X126.416Y-49.2
X127.94Y-97.46
X128.956Y-49.2
X130.48Y-97.46
X131.496Y-49.2
X133.02Y-97.46
X134.036Y-49.2
X135.56Y-97.46
X136.576Y-49.2
X138.1Y-97.46
X139.116Y-49.2
X140.64Y-97.46
X141.656Y-49.2
X143.18Y-97.46
X145.72Y-49.2
X145.72Y-97.46
X148.26Y-49.2
X150.8Y-49.2
X150.8Y-97.46
X153.34Y-49.2
X153.34Y-97.46
X155.88Y-49.2
X155.88Y-97.46
X158.42Y-49.2
X158.42Y-97.46
X160.96Y-49.2
X160.96Y-97.46
X163.5Y-49.2
X163.5Y-97.46
T6
X136.5Y-59.0
X136.5Y-61.54
X136.5Y-64.08
X154.0Y-67.34
X154.0Y-77.5
T7
X161.5Y-70.0
X161.5Y-75.0
T5
G00X103.5Y-91.542
M15
G01X103.5Y-93.542
M16
G05
G00X105.5Y-97.242
M15
G01X107.5Y-97.242
M16
G05
G00X109.5Y-91.542
M15
G01X109.5Y-93.542
M16
G05
M30
